<svg width="26" height="26" viewBox="0 0 26 26" fill="none" xmlns="http://www.w3.org/2000/svg">
<g clip-path="url(#clip0_5_5424)">
<path d="M1.62542 1.76891C-0.417747 3.89116 0.000419308 6.14558 0.000419308 12.9944C0.000419308 18.6819 -0.991914 24.3835 4.20159 25.7257C5.82334 26.1428 20.1927 26.1428 21.8123 25.7236C23.9746 25.1657 25.7339 23.4117 25.9744 20.3535C26.008 19.9267 26.008 6.06974 25.9733 5.63424C25.7177 2.37666 23.7124 0.499243 21.0702 0.118993C20.4646 0.0312431 20.3433 0.00524313 17.2363 -0.000173533C6.2155 0.00524313 3.79967 -0.485507 1.62542 1.76891V1.76891Z" fill="#FB3F6C"/>
<path d="M12.9976 3.40062C9.06403 3.40062 5.3287 3.05071 3.90195 6.71237C3.31261 8.22471 3.3982 10.1888 3.3982 13.0011C3.3982 15.469 3.31911 17.7884 3.90195 19.2888C5.32545 22.9526 9.09111 22.6016 12.9954 22.6016C16.7622 22.6016 20.6459 22.9938 22.09 19.2888C22.6804 17.7613 22.5938 15.8265 22.5938 13.0011C22.5938 9.25062 22.8007 6.82937 20.9818 5.01154C19.1401 3.16987 16.6495 3.40062 12.9933 3.40062H12.9976ZM12.1374 5.13071C20.3426 5.11771 21.3869 4.20554 20.8106 16.8773C20.6059 21.359 17.1934 20.8672 12.9987 20.8672C5.35036 20.8672 5.13045 20.6484 5.13045 12.9968C5.13045 5.25637 5.73711 5.13504 12.1374 5.12854V5.13071ZM18.1218 6.72429C17.4859 6.72429 16.9702 7.23996 16.9702 7.87587C16.9702 8.51179 17.4859 9.02746 18.1218 9.02746C18.7577 9.02746 19.2734 8.51179 19.2734 7.87587C19.2734 7.23996 18.7577 6.72429 18.1218 6.72429V6.72429ZM12.9976 8.07087C10.2752 8.07087 8.06845 10.2787 8.06845 13.0011C8.06845 15.7235 10.2752 17.9303 12.9976 17.9303C15.72 17.9303 17.9257 15.7235 17.9257 13.0011C17.9257 10.2787 15.72 8.07087 12.9976 8.07087V8.07087ZM12.9976 9.80096C17.228 9.80096 17.2334 16.2013 12.9976 16.2013C8.76828 16.2013 8.76178 9.80096 12.9976 9.80096Z" fill="white"/>
</g>
<defs>
<clipPath id="clip0_5_5424">
<rect width="26" height="26" fill="white"/>
</clipPath>
</defs>
</svg>
