<svg width="22" height="22" viewBox="0 0 22 22" fill="none" xmlns="http://www.w3.org/2000/svg">
<g clip-path="url(#clip0_5_5414)">
<path d="M21.9946 21.9998V21.9989H22.0001V13.9304C22.0001 9.98321 21.1503 6.94263 16.5358 6.94263C14.3175 6.94263 12.8288 8.15996 12.2211 9.31404H12.1569V7.31113H7.78165V21.9989H12.3375V14.726C12.3375 12.8111 12.7005 10.9595 15.0719 10.9595C17.4085 10.9595 17.4433 13.1448 17.4433 14.8489V21.9998H21.9946Z" fill="#FB3F6C"/>
<path d="M0.363098 7.31226H4.92443V22H0.363098V7.31226Z" fill="#FB3F6C"/>
<path d="M2.64183 0C1.18342 0 0 1.18342 0 2.64183C0 4.10025 1.18342 5.30842 2.64183 5.30842C4.10025 5.30842 5.28367 4.10025 5.28367 2.64183C5.28275 1.18342 4.09933 0 2.64183 0V0Z" fill="#FB3F6C"/>
</g>
<defs>
<clipPath id="clip0_5_5414">
<rect width="22" height="22" fill="white"/>
</clipPath>
</defs>
</svg>
