<svg width="39" height="29" viewBox="0 0 39 29" fill="none" xmlns="http://www.w3.org/2000/svg">
<path d="M13.9579 26.68C12.3549 28.2267 10.3218 29 7.85865 29C5.43459 29 3.5188 28.1107 2.11128 26.332C0.703759 24.5533 -6.65928e-07 21.3827 -1.06481e-06 16.82C-1.46707e-06 12.2187 3.04962 6.612 9.14887 2.60967e-06L14.4271 3.77C12.4722 7.55934 11.2406 10.7687 10.7323 13.398C12.4135 13.9393 13.782 14.906 14.8376 16.298C15.8541 17.69 16.3624 19.3913 16.3624 21.402C16.3624 23.374 15.5609 25.1333 13.9579 26.68ZM36.6541 26.622C35.0902 28.1687 33.0962 28.942 30.6722 28.942C28.2481 28.9807 26.3323 28.1107 24.9248 26.332C23.5173 24.5533 22.8135 21.3633 22.8135 16.762C22.8135 12.122 25.8241 6.53467 31.8451 6.255e-07L37.2406 3.77C35.1684 7.40467 33.9368 10.614 33.5459 13.398C35.188 13.9393 36.5173 14.906 37.5338 16.298C38.5113 17.6513 39 19.256 39 21.112C39 21.1893 39 21.7307 39 22.736C39 23.78 38.218 25.0753 36.6541 26.622Z" fill="#FB3F6C"/>
</svg>
